HIERARCHY
ROOT Hips
{
  OFFSET -35.4901 99.2528 17.4586
  CHANNELS 6 Xposition Yposition Zposition Zrotation Xrotation Yrotation
  JOINT LeftUpLeg
  {
    OFFSET 8.64259 1.95398 -2.38835
    CHANNELS 3 Zrotation Xrotation Yrotation
    JOINT LeftLeg
    {
      OFFSET 43.7702 0 0
      CHANNELS 3 Zrotation Xrotation Yrotation
      JOINT LeftFoot
      {
        OFFSET 40.6238 0 0
        CHANNELS 3 Zrotation Xrotation Yrotation
        JOINT LeftToeBase
        {
          OFFSET 12.7242 0 0
          CHANNELS 3 Zrotation Xrotation Yrotation
          End Site
          {
            OFFSET 0 0 0
          }
        }
      }
    }
  }
  JOINT RightUpLeg
  {
    OFFSET -8.2249 1.95398 -2.59336
    CHANNELS 3 Zrotation Xrotation Yrotation
    JOINT RightLeg
    {
      OFFSET 43.5653 0 0
      CHANNELS 3 Zrotation Xrotation Yrotation
      JOINT RightFoot
      {
        OFFSET 40.6238 0 0
        CHANNELS 3 Zrotation Xrotation Yrotation
        JOINT RightToeBase
        {
          OFFSET 12.7242 0 0
          CHANNELS 3 Zrotation Xrotation Yrotation
          End Site
          {
            OFFSET 0 0 0
          }
        }
      }
    }
  }
  JOINT Spine
  {
    OFFSET 0.165834 0.87714 6.61349
    CHANNELS 3 Zrotation Xrotation Yrotation
    JOINT Spine1
    {
      OFFSET 7.38963 1.71661e-005 0
      CHANNELS 3 Zrotation Xrotation Yrotation
      JOINT Spine2
      {
        OFFSET 11.9445 1.14441e-005 0
        CHANNELS 3 Zrotation Xrotation Yrotation
        JOINT Spine3
        {
          OFFSET 14.7254 4.19617e-005 0
          CHANNELS 3 Zrotation Xrotation Yrotation
          JOINT Spine4
          {
            OFFSET 10.9679 0 0
            CHANNELS 3 Zrotation Xrotation Yrotation
            JOINT RightShoulder
            {
              OFFSET 2.46616 -1.6653 3.69651
              CHANNELS 3 Zrotation Xrotation Yrotation
              JOINT RightArm
              {
                OFFSET 13.0012 0 0
                CHANNELS 3 Zrotation Xrotation Yrotation
                JOINT RightForeArm
                {
                  OFFSET 28.7848 1.52588e-005 0
                  CHANNELS 3 Zrotation Xrotation Yrotation
                  JOINT RightHand
                  {
                    OFFSET 26.5688 1.52588e-005 0
                    CHANNELS 3 Zrotation Xrotation Yrotation
                    End Site
                    {
                      OFFSET 0 0 0
                    }
                  }
                }
              }
            }
            JOINT LeftShoulder
            {
              OFFSET 2.38034 -1.29275 -3.7523
              CHANNELS 3 Zrotation Xrotation Yrotation
              JOINT LeftArm
              {
                OFFSET 16.3182 6.10351e-005 0
                CHANNELS 3 Zrotation Xrotation Yrotation
                JOINT LeftForeArm
                {
                  OFFSET 27.0901 0 0
                  CHANNELS 3 Zrotation Xrotation Yrotation
                  JOINT LeftHand
                  {
                    OFFSET 24.5451 1.52588e-005 0
                    CHANNELS 3 Zrotation Xrotation Yrotation
                    End Site
                    {
                      OFFSET 0 0 0
                    }
                  }
                }
              }
            }
            JOINT Neck
            {
              OFFSET 5.0226 -0.0266342 0
              CHANNELS 3 Zrotation Xrotation Yrotation
              JOINT Head
              {
                OFFSET 6.69364 2.86102e-005 0
                CHANNELS 3 Zrotation Xrotation Yrotation
                End Site
                {
                  OFFSET 0 0 0
                }
              }
            }
          }
        }
      }
    }
  }
}
MOTION
Frames:	12
Frame Time:	0.0416667
107.07 82.9269 216.126 -89.207 48.5402 -91.7379 -168.738 -5.54313 92.4577 -49.8136 0.000176659 -5.20548 101.655 14.6696 -9.44715 47.457 0.723869 -4.30525 174.936 51.1074 94.7079 -53.359 -24.1242 1.101 68.6038 -4.253 -3.22849 13.6031 -2.874 7.06039 -0.917643 9.58367 -90.0146 7.70476 -1.83842 0.0592548 -3.96488 -1.83402 0.140132 -26.5099 -1.7712 -0.496193 -6.49722 -1.7712 -0.496186 93.0947 -28.0024 -101.164 40.5795 -15.5443 18.4127 -43.7969 -11.543 -75.8589 -32.6258 -0.130874 -8.8578 -87.118 -44.3972 82.0582 -15.8493 9.91675 -18.0546 34.3772 -12.0901 -93.1964 -8.26424 0.868685 -22.8624 31.926 4.65438 -6.07884 -4.8034 6.8172 5.11421 
111.498 83.4402 219.45 -92.8806 50.2857 -89.3421 -167.513 -2.10365 91.4158 -55.1939 -3.5595 -6.07478 103.017 14.0737 -11.6923 46.5411 0.907506 -4.54256 175.178 49.0769 95.0915 -50.0584 -19.0129 0.932603 71.3969 -5.35233 -0.391212 16.6074 -1.43627 4.30628 -0.547797 9.97745 -89.7898 6.92179 -1.00415 0.459121 -4.74887 -0.982968 0.502879 -27.2871 -1.09571 0.136085 -7.27443 -1.09571 0.13608 92.7178 -27.3333 -102.178 38.9827 -6.60597 11.3896 -32.8544 -5.06835 -81.0167 -38.8189 -0.57866 -5.38801 -86.4358 -46.9251 83.587 -23.2353 18.1909 1.62393 35.185 -10.6193 -87.8176 -6.77068 0.574462 -21.3623 29.9581 3.55068 -7.48911 -2.61396 6.31707 5.13561 
115.193 84.4784 221.049 -95.7247 50.1003 -87.5569 -166.823 0.339079 92.4512 -57.5065 -3.03313 -5.69944 99.2393 13.2338 -10.8183 46.9696 0.723887 -4.17527 175.909 48.5694 94.4233 -53.8486 -13.3898 0.282458 69.8917 -5.18871 -2.74565 14.2132 -2.59465 6.57328 -0.158332 10.1199 -89.814 6.63438 -0.236963 0.37537 -5.03661 -0.220194 0.385428 -27.5716 -0.338831 0.286794 -7.55901 -0.33882 0.286797 92.6702 -25.5463 -102.886 35.8613 -0.0448381 12.5768 -38.6869 -4.20768 -89.9331 -34.6004 0.506945 -10.0101 -85.7732 -47.6592 84.7297 -29.7382 24.0049 22.7078 30.7565 -14.6921 -90.0364 -5.27759 0.314949 -20.2572 26.4897 2.21973 -6.45513 -0.0986568 4.55806 4.55567 
118.215 85.6907 221.705 -95.6716 46.2791 -87.6807 -167.822 3.13649 93.3745 -57.5082 0.0647724 -3.55484 98.7065 13.7046 -9.7989 43.0854 1.02214 -4.0667 176.153 49.0336 91.6525 -58.1837 -15.2763 -0.233599 68.0933 -4.31558 -2.64589 16.0045 -1.57251 4.59016 -0.0714031 10.1058 -89.8808 6.66228 -0.0917405 0.238124 -5.00869 -0.0811563 0.241924 -27.5437 -0.159081 0.199543 -7.53105 -0.159047 0.199547 92.4435 -25.6916 -103.323 32.5336 1.9324 14.9366 -43.6327 0.0149661 -91.1167 -32.3193 0.284075 -10.0902 -84.9023 -44.2113 85.5951 -35.4005 27.3206 36.5537 30.9309 -18.7441 -92.3047 -1.98712 -0.143352 -19.5988 24.4024 0.0692165 -7.83152 1.1446 2.93287 4.90304 
120.241 86.8499 221.445 -96.5672 45.0217 -87.2398 -169.088 2.3119 93.7064 -54.9205 -1.69523 -2.80966 98.3075 13.1394 -10.8551 40.6516 0.203635 -1.78421 177.884 47.5437 89.3397 -60.0188 -17.2025 -1.20198 66.8226 -3.84596 -3.26368 16.8878 -2.63147 6.71062 0.191079 10.0264 -89.9819 6.82089 0.389381 0.0201259 -4.84999 0.389889 0.00295948 -27.3855 0.365331 0.136218 -7.3729 0.365317 0.136211 93.2013 -24.366 -102.141 31.4177 4.03769 17.0725 -57.6144 -5.95402 -96.6773 -28.0801 -0.896725 -7.46362 -85.1187 -43.385 85.1236 -37.4313 27.001 44.0587 32.7578 -20.1202 -92.1484 -1.76462 -0.169909 -19.1736 22.1415 -1.06665 -5.99657 1.77604 1.06312 3.30658 
121.771 87.8331 220.487 -96.6124 45.6506 -86.9161 -169.603 1.59992 94.5375 -52.0921 -0.875973 -2.28014 96.6141 12.8507 -9.76297 39.7489 -0.548862 -0.0502296 179.025 46.2559 88.806 -60.0049 -16.8819 -1.78622 67.2922 -4.14022 -3.00763 17.7217 -2.53055 6.52243 0.319751 9.83483 -89.9603 7.20419 0.655673 0.0481969 -4.46659 0.657181 0.0192823 -27.0029 0.610872 0.243029 -6.9903 0.61088 0.243039 92.8975 -24.4048 -102.795 32.1205 2.09409 17.5154 -59.744 -5.89873 -96.4398 -26.5911 -1.04638 -7.08334 -84.6419 -44.0375 85.9928 -36.4929 23.2901 46.6107 36.5496 -20.0618 -92.0615 -0.662947 -0.300396 -18.4284 20.5951 -1.10616 -5.35242 2.5699 0.727918 2.54145 
122.79 88.7267 218.816 -96.9391 46.3396 -86.5706 -169.587 -0.473239 95.8228 -48.1897 0.0853342 -2.18421 95.0873 12.4915 -9.04257 39.3585 -0.905988 0.748298 179.098 44.4121 88.3216 -59.4141 -15.7665 -2.01165 68.7661 -4.85888 -2.42782 18.7698 -2.29147 6.04168 0.322644 9.75573 -89.9411 7.36218 0.669694 0.0841854 -4.3086 0.672758 0.0546187 -26.8449 0.613437 0.281575 -6.8323 0.613443 0.281562 92.7947 -24.2062 -103.094 34.6288 -0.269509 18.2368 -54.8812 -2.51096 -94.8403 -25.5926 -0.561895 -8.79323 -84.3438 -45.1873 86.6288 -34.3063 21.6069 42.7082 36.0454 -18.0604 -91.0427 -0.839726 -0.275082 -18.101 21.4754 -0.929287 -4.48561 1.52602 0.629489 2.31286 
123.422 89.084 216.381 -96.4982 47.0141 -87.3152 -169.106 -2.826 97.2658 -43.9747 1.10025 -2.60903 94.3865 12.0771 -9.30949 39.1062 -1.60576 2.24538 -179.969 42.9914 86.5944 -60.118 -13.5053 -2.62723 71.9791 -6.29278 -0.877953 21.53 -1.78641 4.94516 0.219147 9.60591 -89.8625 7.66145 0.497312 0.245612 -4.00942 0.507653 0.223477 -26.5449 0.400494 0.383718 -6.53231 0.400492 0.383709 92.6858 -24.9867 -103.051 37.6905 -4.97466 17.1997 -48.1372 -0.110511 -89.8851 -27.7096 0.170039 -11.0642 -84.2566 -47.2586 87.0318 -30.8701 19.9019 34.525 37.9709 -15.5583 -89.4981 0.777543 -0.42805 -16.5572 22.1268 -0.578139 -4.6899 0.836236 1.05332 2.62315 
123.823 89.2549 212.986 -95.2099 44.3776 -88.7366 -168.867 -4.82746 99.4944 -39.2221 4.34152 -1.72761 93.262 11.6188 -9.59677 39.8532 -2.13809 3.35314 -178.655 41.3427 82.8607 -63.7578 -11.9073 -3.59983 76.767 -8.69404 -0.939007 22.6895 -1.49581 4.25422 -0.0327105 9.48538 -89.8366 7.90332 0.00612478 0.323437 -3.76768 0.0203588 0.322855 -26.3025 -0.0913689 0.310321 -6.28985 -0.0913668 0.310324 92.3671 -26.6935 -103.132 40.9438 -6.58939 19.6934 -42.5733 -0.634867 -83.7077 -31.8527 0.36208 -10.0648 -85.2027 -48.6719 85.7557 -25.8975 20.3517 19.3431 38.7391 -12.7611 -87.6252 0.401161 -0.388008 -16.8086 22.1727 -0.940937 -5.78791 1.56398 1.09919 3.09174 
123.505 89.0671 208.62 -93.1732 38.5539 -91.1582 -168.542 -6.62348 102.3 -32.785 9.87846 0.0706051 91.4421 11.2833 -9.59916 40.7009 -2.72153 4.59682 -177.816 38.0563 77.2243 -68.4535 -11.2739 -4.73917 82.2227 -11.2558 -0.564534 23.5925 -1.0433 3.13815 -0.497205 9.23362 -89.8971 8.40704 -0.946775 0.259912 -3.2636 -0.934413 0.301328 -25.8014 -0.981108 -0.0366742 -5.78875 -0.981101 -0.036676 93.0515 -27.2894 -101.491 45.4197 -7.07035 27.5966 -39.7219 -3.9028 -82.8927 -33.1563 0.638298 -10.7108 -85.92 -50.1077 84.8681 -18.6257 24.3762 -0.676879 39.1069 -12.5489 -87.483 2.02015 -0.592792 -17.2114 23.4399 -1.82305 -6.23234 0.249126 0.438772 3.20302 
123.388 88.0797 203.228 -90.5883 33.3712 -92.4663 -166.63 -6.15194 107.286 -27.7044 16.5677 1.21997 89.4309 10.7823 -9.62451 41.8459 -3.16371 5.59279 -177.321 34.0255 74.9526 -72.5882 -12.0575 -5.40702 84.5073 -11.823 1.68254 19.5772 -0.157948 1.46066 -0.887202 8.83115 -90.1473 9.21096 -1.83536 -0.159668 -2.45869 -1.84063 -0.0787027 -25.0031 -1.70251 -0.70404 -4.99041 -1.70252 -0.704049 92.3928 -26.5505 -103.126 50.7726 -9.92284 37.6623 -38.3192 -4.70459 -79.5927 -30.6014 1.6461 -15.2521 -86.0505 -49.3675 84.5614 -14.6558 25.1105 -20.2593 37.2031 -13.8712 -90.2328 -3.10064 0.00515995 -19.3427 22.9499 -2.13915 -4.29054 0.667322 -0.55916 2.08947 
122.877 86.6408 196.951 -88.8316 30.5658 -92.6541 -165.269 -6.33047 111.148 -24.4546 20.9025 3.27992 84.2555 10.2855 -4.72774 48.2237 -3.5311 6.8681 179.479 27.8002 77.492 -69.3614 -11.8276 -5.19389 83.0517 -11.6625 -0.65954 29.8074 0.0315513 -0.24947 -1.14873 8.59767 -90.4014 9.67365 -2.47147 -0.602789 -1.99502 -2.49561 -0.493375 -24.5446 -2.17602 -1.318 -4.53197 -2.17603 -1.31801 92.1115 -25.2672 -104.197 55.7525 -14.9615 44.0978 -36.1483 -5.03175 -75.4732 -32.3139 2.11347 -16.1585 -86.0069 -45.8255 84.0765 -14.924 23.8011 -33.8591 33.3333 -14.6096 -93.5139 -1.18217 -0.237574 -18.147 26.4594 -1.83663 -3.30223 -1.92984 -0.542648 2.43541 
